<?xml version="1.0" encoding="utf-8"?>
<!-- Generator: Adobe Illustrator 21.1.0, SVG Export Plug-In . SVG Version: 6.00 Build 0)  -->
<svg version="1.1" id="Layer_1" xmlns="http://www.w3.org/2000/svg" xmlns:xlink="http://www.w3.org/1999/xlink" x="0px" y="0px"
	 viewBox="0 0 128 128" style="enable-background:new 0 0 128 128;" xml:space="preserve">
<style type="text/css">
	.st0{fill:#000000; stroke:#000000;}
</style>
<path fill="#000000" class="st0" d="M104.4,14.8l-7,17.5H3.3l20.1,49.5C16.3,83.5,11,89.8,11,97.3c0,8.7,7.1,15.8,15.8,15.8s15.8-7.1,15.8-15.8
	c0-5.8-3.2-10.9-7.9-13.7h40.6c-4.7,2.7-7.9,7.8-7.9,13.7c0,8.7,7.1,15.8,15.8,15.8s15.8-7.1,15.8-15.8c0-7.4-5.1-13.6-12-15.3
	l23.3-58.2h14.3v-9H104.4z M26.8,104.2c-3.8,0-6.8-3.1-6.8-6.8s3.1-6.8,6.8-6.8s6.8,3.1,6.8,6.8S30.6,104.2,26.8,104.2z M90.2,97.3
	c0,3.8-3.1,6.8-6.8,6.8s-6.8-3.1-6.8-6.8s3.1-6.8,6.8-6.8S90.2,93.6,90.2,97.3z M80.4,74.7H30.1L16.6,41.4h77.1L80.4,74.7z" stroke="#000000"/>
</svg>
